HIERARCHY
ROOT newVegas:Hips
{
	OFFSET 0.000000 96.479958 0.000000
	CHANNELS 6 Xposition Yposition Zposition Xrotation Yrotation Zrotation
	JOINT newVegas:Pelvis
	{
		OFFSET 0.000000 0.000000 0.000000
		CHANNELS 3 Xrotation Yrotation Zrotation
		JOINT newVegas:LeftUpLeg
		{
			OFFSET 18.735201 -5.666702 -4.541200
			CHANNELS 3 Xrotation Yrotation Zrotation
			JOINT newVegas:LeftLeg
			{
				OFFSET -0.021200 -31.938179 0.493100
				CHANNELS 3 Xrotation Yrotation Zrotation
				JOINT newVegas:LeftFoot
				{
					OFFSET 0.021200 -31.938179 -4.336299
					CHANNELS 3 Xrotation Yrotation Zrotation
					JOINT newVegas:LeftToeBase
					{
						OFFSET 0.943001 -26.722000 15.023500
						CHANNELS 3 Xrotation Yrotation Zrotation
						End Site
						{
							OFFSET 0.000000 30.670183 0.000000
						}
					}
				}
				JOINT newVegas:Left_PantLeg
				{
					OFFSET 0.663870 -9.044666 -1.108900
					CHANNELS 3 Xrotation Yrotation Zrotation
					End Site
					{
						OFFSET 1.415995 20.635357 0.000000
					}
				}
			}
		}
		JOINT newVegas:RightUpLeg
		{
			OFFSET -18.735201 -5.666702 -4.541200
			CHANNELS 3 Xrotation Yrotation Zrotation
			JOINT newVegas:RightLeg
			{
				OFFSET 0.018946 -31.938133 0.493100
				CHANNELS 3 Xrotation Yrotation Zrotation
				JOINT newVegas:RightFoot
				{
					OFFSET -0.018946 -31.938126 -4.336299
					CHANNELS 3 Xrotation Yrotation Zrotation
					JOINT newVegas:RightToeBase
					{
						OFFSET -0.943001 -26.722004 15.023500
						CHANNELS 3 Xrotation Yrotation Zrotation
						End Site
						{
							OFFSET 0.000000 30.670187 0.000000
						}
					}
				}
				JOINT newVegas:Right_PantLeg
				{
					OFFSET -0.661674 -9.044716 -1.108900
					CHANNELS 3 Xrotation Yrotation Zrotation
					End Site
					{
						OFFSET -1.415958 20.635269 0.000000
					}
				}
			}
		}
	}
	JOINT newVegas:Spine
	{
		OFFSET 0.000000 10.199997 -0.299500
		CHANNELS 3 Xrotation Yrotation Zrotation
		JOINT newVegas:Spine1
		{
			OFFSET 0.000000 11.900002 -1.516600
			CHANNELS 3 Xrotation Yrotation Zrotation
			JOINT newVegas:Spine2
			{
				OFFSET 0.000000 13.600006 -2.842500
				CHANNELS 3 Xrotation Yrotation Zrotation
				JOINT newVegas:Neck
				{
					OFFSET 0.000000 9.624100 -2.890100
					CHANNELS 3 Xrotation Yrotation Zrotation
					JOINT newVegas:Head
					{
						OFFSET 0.000000 14.068802 -1.351900
						CHANNELS 3 Xrotation Yrotation Zrotation
						JOINT newVegas:Hair_Back
						{
							OFFSET 0.000000 3.231903 -17.524799
							CHANNELS 3 Xrotation Yrotation Zrotation
							End Site
							{
								OFFSET 0.000000 19.849884 0.000000
							}
						}
						JOINT newVegas:Hair_Front
						{
							OFFSET 0.000000 31.260406 4.573800
							CHANNELS 3 Xrotation Yrotation Zrotation
							JOINT newVegas:Hair_Front1
							{
								OFFSET 0.000000 2.284103 11.993300
								CHANNELS 3 Xrotation Yrotation Zrotation
								JOINT newVegas:Hair_Front2
								{
									OFFSET 0.000000 2.284103 11.993300
									CHANNELS 3 Xrotation Yrotation Zrotation
									End Site
									{
										OFFSET 0.000000 12.208862 0.000000
									}
								}
							}
						}
						JOINT newVegas:Jowel
						{
							OFFSET 0.000000 -7.458206 6.864100
							CHANNELS 3 Xrotation Yrotation Zrotation
							End Site
							{
								OFFSET 0.000000 19.849884 0.000000
							}
						}
					}
				}
				JOINT newVegas:LeftShoulder
				{
					OFFSET 15.263000 10.923401 -0.547700
					CHANNELS 3 Xrotation Yrotation Zrotation
					JOINT newVegas:LeftArm
					{
						OFFSET 25.438599 -2.830597 -13.032500
						CHANNELS 3 Xrotation Yrotation Zrotation
						JOINT newVegas:LeftForeArm
						{
							OFFSET 29.960503 0.000000 0.000000
							CHANNELS 3 Xrotation Yrotation Zrotation
							JOINT newVegas:LeftHand
							{
								OFFSET 27.849251 0.000000 0.000000
								CHANNELS 3 Xrotation Yrotation Zrotation
								JOINT newVegas:LeftHandThumb1
								{
									OFFSET 4.487587 -3.305161 6.305391
									CHANNELS 3 Xrotation Yrotation Zrotation
									JOINT newVegas:LeftHandThumb2
									{
										OFFSET 5.480453 -3.164139 3.164143
										CHANNELS 3 Xrotation Yrotation Zrotation
										JOINT newVegas:LeftHandThumb3
										{
											OFFSET 5.159721 -2.978973 2.978967
											CHANNELS 3 Xrotation Yrotation Zrotation
											End Site
											{
												OFFSET 2.494507 5.926697 1.738678
											}
										}
									}
								}
								JOINT newVegas:LeftHandIndex1
								{
									OFFSET 18.578728 -0.527832 5.208049
									CHANNELS 3 Xrotation Yrotation Zrotation
									JOINT newVegas:LeftHandIndex2
									{
										OFFSET 3.192009 0.000000 0.000000
										CHANNELS 3 Xrotation Yrotation Zrotation
										JOINT newVegas:LeftHandIndex3
										{
											OFFSET 3.835129 0.000000 0.000000
											CHANNELS 3 Xrotation Yrotation Zrotation
											End Site
											{
												OFFSET -0.034599 3.816971 0.371180
											}
										}
									}
								}
								JOINT newVegas:LeftHandMiddle1
								{
									OFFSET 18.476105 0.000000 0.000000
									CHANNELS 3 Xrotation Yrotation Zrotation
									JOINT newVegas:LeftHandMiddle2
									{
										OFFSET 3.324875 0.000000 0.000000
										CHANNELS 3 Xrotation Yrotation Zrotation
										JOINT newVegas:LeftHandMiddle3
										{
											OFFSET 4.596550 0.000000 0.000000
											CHANNELS 3 Xrotation Yrotation Zrotation
											End Site
											{
												OFFSET 0.057701 4.578827 0.399218
											}
										}
									}
								}
								JOINT newVegas:LeftHandRing1
								{
									OFFSET 17.732719 0.121887 -4.201567
									CHANNELS 3 Xrotation Yrotation Zrotation
									JOINT newVegas:LeftHandRing2
									{
										OFFSET 2.733170 0.000000 0.000000
										CHANNELS 3 Xrotation Yrotation Zrotation
										JOINT newVegas:LeftHandRing3
										{
											OFFSET 3.178268 0.000000 0.000000
											CHANNELS 3 Xrotation Yrotation Zrotation
											End Site
											{
												OFFSET 0.119102 3.170624 0.185394
											}
										}
									}
								}
								JOINT newVegas:LeftHandPinky1
								{
									OFFSET 15.989624 -0.606689 -7.535461
									CHANNELS 3 Xrotation Yrotation Zrotation
									JOINT newVegas:LeftHandPinky2
									{
										OFFSET 2.538986 0.000000 0.000000
										CHANNELS 3 Xrotation Yrotation Zrotation
										JOINT newVegas:LeftHandPinky3
										{
											OFFSET 2.593102 0.000000 0.000000
											CHANNELS 3 Xrotation Yrotation Zrotation
											End Site
											{
												OFFSET -0.150902 2.584198 0.152708
											}
										}
									}
								}
							}
							JOINT newVegas:Left_Sleeve
							{
								OFFSET 0.267448 -0.649796 0.577675
								CHANNELS 3 Xrotation Yrotation Zrotation
								End Site
								{
									OFFSET 0.000000 15.991241 0.000000
								}
							}
							JOINT newVegas:Left_CapeC
							{
								OFFSET 15.715958 -8.608795 -6.935905
								CHANNELS 3 Xrotation Yrotation Zrotation
								JOINT newVegas:Left_CapeC1
								{
									OFFSET 0.000000 -8.688499 0.000000
									CHANNELS 3 Xrotation Yrotation Zrotation
									End Site
									{
										OFFSET 0.000000 8.688499 0.000000
									}
								}
							}
						}
						JOINT newVegas:Left_CapeB
						{
							OFFSET 26.118385 -8.608795 -7.079235
							CHANNELS 3 Xrotation Yrotation Zrotation
							JOINT newVegas:Left_CapeB1
							{
								OFFSET 0.000000 -8.688499 0.000000
								CHANNELS 3 Xrotation Yrotation Zrotation
								End Site
								{
									OFFSET 0.000000 8.688499 0.000000
								}
							}
						}
						JOINT newVegas:Left_CapeA
						{
							OFFSET 5.115639 -8.608795 -10.395809
							CHANNELS 3 Xrotation Yrotation Zrotation
							JOINT newVegas:Left_CapeA1
							{
								OFFSET 0.000000 -8.688499 0.000000
								CHANNELS 3 Xrotation Yrotation Zrotation
								End Site
								{
									OFFSET 0.000000 8.688499 0.000000
								}
							}
						}
					}
				}
				JOINT newVegas:RightShoulder
				{
					OFFSET -15.263000 10.923401 -0.547700
					CHANNELS 3 Xrotation Yrotation Zrotation
					JOINT newVegas:RightArm
					{
						OFFSET -25.438599 -2.830597 -13.032500
						CHANNELS 3 Xrotation Yrotation Zrotation
						JOINT newVegas:RightForeArm
						{
							OFFSET -29.960503 0.000000 0.000000
							CHANNELS 3 Xrotation Yrotation Zrotation
							JOINT newVegas:RightHand
							{
								OFFSET -27.849251 0.000000 0.000000
								CHANNELS 3 Xrotation Yrotation Zrotation
								JOINT newVegas:RightHandThumb1
								{
									OFFSET -4.487587 -3.305161 6.305391
									CHANNELS 3 Xrotation Yrotation Zrotation
									JOINT newVegas:RightHandThumb2
									{
										OFFSET -5.480453 -3.164139 3.164143
										CHANNELS 3 Xrotation Yrotation Zrotation
										JOINT newVegas:RightHandThumb3
										{
											OFFSET -5.159721 -2.978973 2.978967
											CHANNELS 3 Xrotation Yrotation Zrotation
											End Site
											{
												OFFSET -2.494507 5.926697 1.738678
											}
										}
									}
								}
								JOINT newVegas:RightHandIndex1
								{
									OFFSET -18.578728 -0.527832 5.208049
									CHANNELS 3 Xrotation Yrotation Zrotation
									JOINT newVegas:RightHandIndex2
									{
										OFFSET -3.192009 0.000000 0.000000
										CHANNELS 3 Xrotation Yrotation Zrotation
										JOINT newVegas:RightHandIndex3
										{
											OFFSET -3.835129 0.000000 0.000000
											CHANNELS 3 Xrotation Yrotation Zrotation
											End Site
											{
												OFFSET 0.034599 3.816971 0.371180
											}
										}
									}
								}
								JOINT newVegas:RightHandMiddle1
								{
									OFFSET -18.476105 0.000000 0.000000
									CHANNELS 3 Xrotation Yrotation Zrotation
									JOINT newVegas:RightHandMiddle2
									{
										OFFSET -3.324875 0.000000 0.000000
										CHANNELS 3 Xrotation Yrotation Zrotation
										JOINT newVegas:RightHandMiddle3
										{
											OFFSET -4.596550 0.000000 0.000000
											CHANNELS 3 Xrotation Yrotation Zrotation
											End Site
											{
												OFFSET -0.057701 4.578827 0.399218
											}
										}
									}
								}
								JOINT newVegas:RightHandRing1
								{
									OFFSET -17.732719 0.121887 -4.201567
									CHANNELS 3 Xrotation Yrotation Zrotation
									JOINT newVegas:RightHandRing2
									{
										OFFSET -2.733170 0.000000 0.000000
										CHANNELS 3 Xrotation Yrotation Zrotation
										JOINT newVegas:RightHandRing3
										{
											OFFSET -3.178268 0.000000 0.000000
											CHANNELS 3 Xrotation Yrotation Zrotation
											End Site
											{
												OFFSET -0.119102 3.170624 0.185394
											}
										}
									}
								}
								JOINT newVegas:RightHandPinky1
								{
									OFFSET -15.989624 -0.606689 -7.535461
									CHANNELS 3 Xrotation Yrotation Zrotation
									JOINT newVegas:RightHandPinky2
									{
										OFFSET -2.538986 0.000000 0.000000
										CHANNELS 3 Xrotation Yrotation Zrotation
										JOINT newVegas:RightHandPinky3
										{
											OFFSET -2.593102 0.000000 0.000000
											CHANNELS 3 Xrotation Yrotation Zrotation
											End Site
											{
												OFFSET 0.150902 2.584198 0.152708
											}
										}
									}
								}
							}
							JOINT newVegas:Right_CapeC
							{
								OFFSET -15.715958 -8.608795 -6.935905
								CHANNELS 3 Xrotation Yrotation Zrotation
								JOINT newVegas:Right_CapeC1
								{
									OFFSET 0.000000 -8.688499 0.000000
									CHANNELS 3 Xrotation Yrotation Zrotation
									End Site
									{
										OFFSET 0.000000 8.688499 0.000000
									}
								}
							}
							JOINT newVegas:Right_Sleeve
							{
								OFFSET -0.267448 -0.649994 0.577675
								CHANNELS 3 Xrotation Yrotation Zrotation
								End Site
								{
									OFFSET 0.000000 15.991302 0.000000
								}
							}
						}
						JOINT newVegas:Right_CapeA
						{
							OFFSET -5.115540 -8.608795 -10.395824
							CHANNELS 3 Xrotation Yrotation Zrotation
							JOINT newVegas:Right_CapeA1
							{
								OFFSET 0.000000 -8.688499 0.000000
								CHANNELS 3 Xrotation Yrotation Zrotation
								End Site
								{
									OFFSET 0.000000 8.688499 0.000000
								}
							}
						}
						JOINT newVegas:Right_CapeB
						{
							OFFSET -26.118187 -8.608795 -7.079266
							CHANNELS 3 Xrotation Yrotation Zrotation
							JOINT newVegas:Right_CapeB1
							{
								OFFSET 0.000000 -8.688499 0.000000
								CHANNELS 3 Xrotation Yrotation Zrotation
								End Site
								{
									OFFSET 0.000000 8.688499 0.000000
								}
							}
						}
					}
				}
				JOINT newVegas:Left_Collar
				{
					OFFSET 18.625099 8.655502 8.828100
					CHANNELS 3 Xrotation Yrotation Zrotation
					JOINT newVegas:Left_Collar1
					{
						OFFSET 14.783401 10.540405 -1.259500
						CHANNELS 3 Xrotation Yrotation Zrotation
						End Site
						{
							OFFSET 0.000000 18.199875 0.000000
						}
					}
				}
				JOINT newVegas:Collar_Back
				{
					OFFSET 0.000000 15.630707 -20.132601
					CHANNELS 3 Xrotation Yrotation Zrotation
					End Site
					{
						OFFSET 0.000000 22.523010 0.000000
					}
				}
				JOINT newVegas:Left_Peck
				{
					OFFSET 17.239599 -5.132599 25.482599
					CHANNELS 3 Xrotation Yrotation Zrotation
					End Site
					{
						OFFSET 0.000000 22.523010 0.000000
					}
				}
				JOINT newVegas:Right_Peck
				{
					OFFSET -17.239599 -5.132202 25.482599
					CHANNELS 3 Xrotation Yrotation Zrotation
					End Site
					{
						OFFSET 0.000000 22.523010 0.000000
					}
				}
				JOINT newVegas:Right_Collar
				{
					OFFSET -18.625099 8.655792 8.828100
					CHANNELS 3 Xrotation Yrotation Zrotation
					JOINT newVegas:Right_Collar1
					{
						OFFSET -14.783401 10.539993 -1.259500
						CHANNELS 3 Xrotation Yrotation Zrotation
						End Site
						{
							OFFSET 0.000000 18.199631 0.000000
						}
					}
				}
			}
		}
		JOINT newVegas:Belly
		{
			OFFSET 0.000000 -6.540398 9.014299
			CHANNELS 3 Xrotation Yrotation Zrotation
			End Site
			{
				OFFSET 0.000000 11.566666 0.000000
			}
		}
	}
	JOINT newVegas:ElvisFacialAnim_Joint
	{
		OFFSET 1.000000 -95.330101 -8.825800
		CHANNELS 3 Xrotation Yrotation Zrotation
		End Site
		{
			OFFSET 0.000000 35.315800 0.000000
		}
	}
}
MOTION
Frames: 4
Frame Time: 0.016667
-131.094818 34.826721 14.815123 4.930307 2.277716 -43.042356 0.000000 0.000000 0.000002 -129.843631 -2.401486 0.240951 36.258677 -1.812607 3.846088 33.542270 -10.300718 41.898402 0.000002 -0.000001 -0.000001 0.000000 -0.000001 0.000000 -114.462332 -8.370236 -31.660229 128.123530 10.587568 0.525656 16.236154 29.882720 6.061731 -0.000003 -0.000000 -0.000000 -0.000002 -0.000001 -0.000003 26.964443 -2.092098 -10.669590 4.579540 1.205233 -2.831996 4.490612 1.286416 -2.943279 -0.815414 0.464024 0.362698 -0.815415 0.464026 0.362698 0.000003 0.000000 -0.000000 -0.815389 0.464040 0.362701 -0.815435 0.464013 0.362705 -0.000001 -0.000001 -0.000000 0.000003 0.000000 0.000001 -1.373411 -20.809899 -17.189995 -48.855298 35.869090 -5.133239 -0.000007 -67.519562 0.000002 -8.667163 25.097315 88.863527 -18.674864 -12.715909 12.000664 5.781724 26.667873 7.360272 0.000002 -0.000003 -0.000003 -0.114395 -6.949171 -4.727151 -0.000001 -0.000000 0.000001 0.000001 0.000001 -0.000000 0.098864 -2.457609 0.172478 0.069074 0.897929 -8.797568 0.000000 -0.000002 0.000001 0.130747 1.053434 3.316424 0.099484 1.076166 -10.562548 0.000000 -0.000001 0.000001 -1.043230 17.733027 -1.993046 0.000108 0.035393 -0.345394 -0.000000 -0.000002 -0.000000 -0.000001 0.000001 -0.000000 -0.000001 0.000001 -0.000000 -0.000002 0.000001 0.000000 -0.000001 0.000000 0.000000 -0.000001 -0.000001 0.000000 -0.000001 0.000000 0.000000 -0.000001 -0.000001 0.000000 0.401295 16.298356 -0.998272 -40.005244 -32.703977 -10.775245 -0.000008 46.721544 0.000014 -50.663878 -2.035164 11.091348 -36.432847 17.171381 -23.039142 7.506132 -18.062847 -3.520393 -0.000000 -0.000002 -0.000001 0.815371 4.038541 -1.787532 -0.000000 -0.000004 0.000061 -0.000000 0.000001 -0.000001 0.053668 -1.961536 -1.170903 -0.000003 -0.001796 0.022146 -0.000001 -0.000001 -0.000004 0.143747 -11.067566 0.271834 0.000001 0.000006 0.000009 -0.000000 -0.000001 0.000002 -0.350055 -18.063089 -1.651680 0.001503 -0.118482 1.454590 -0.000002 0.000002 -0.000000 0.000002 0.000001 -0.000002 0.000002 0.000001 -0.000003 0.000002 0.000001 -0.000006 0.000000 0.000001 0.000001 0.000000 0.000001 0.000001 0.000000 0.000001 0.000001 0.000000 0.000001 0.000003 0.000001 0.000001 0.000002 0.000001 0.000001 0.000002 0.000001 0.000001 0.000002 0.000001 0.000001 0.000002 0.000001 0.000001 0.000002 0.000001 0.000001 0.000002 0.000001 0.000001 0.000002 0.000002 -0.000002 -0.000001 0.000000 0.000000 0.000002 
-130.489822 35.835976 13.815903 4.640781 1.962973 -43.865070 -0.000000 0.000000 -0.000002 -128.042305 -2.599250 0.766765 32.092426 -2.122272 3.822885 37.987282 -8.663540 40.230989 -0.000001 -0.000003 -0.000001 0.000001 -0.000002 -0.000001 -111.631949 -10.426571 -30.502669 125.463854 10.521984 0.399365 13.901241 29.879291 7.766635 0.000004 -0.000001 -0.000001 -0.000001 0.000001 0.000001 26.464765 -2.672399 -11.339671 4.544296 1.067062 -3.000534 4.469512 1.152591 -3.102258 -0.818090 0.508255 0.356333 -0.818093 0.508260 0.356335 0.000002 0.000000 -0.000000 -0.818055 0.508288 0.356330 -0.818066 0.508219 0.356345 0.000001 0.000000 -0.000000 0.000002 0.000000 0.000001 -0.738569 -20.006920 -16.433097 -50.129227 35.122247 -5.603045 -0.000007 -67.864268 0.000005 -7.308397 26.200071 89.911668 -18.673710 -12.714339 12.002647 5.779677 26.667113 7.363963 -0.000002 0.000001 -0.000006 -0.114863 -6.948379 -4.729059 -0.000000 0.000005 -0.000001 -0.000000 0.000001 0.000000 0.098903 -2.457258 0.173014 0.068624 0.895026 -8.768863 0.000000 0.000001 0.000001 0.130717 1.054176 3.317223 0.098833 1.072694 -10.528031 -0.000001 0.000001 0.000001 -1.043698 17.733743 -1.992100 0.000106 0.035311 -0.344534 -0.000000 -0.000002 -0.000000 -0.000000 0.000000 0.000000 -0.000000 0.000000 0.000000 -0.000001 0.000000 0.000001 -0.000002 -0.000003 0.000000 -0.000001 -0.000005 -0.000000 -0.000002 -0.000003 0.000000 -0.000002 -0.000003 0.000000 0.572091 17.177625 -1.647715 -40.220699 -36.620551 -13.906589 0.000002 47.792825 -0.000006 -49.852670 -3.546370 10.728638 -36.512576 17.028100 -23.229359 7.528377 -18.244748 -3.533555 -0.000000 0.000001 -0.000004 0.824681 4.106030 -1.666734 -0.000002 -0.000013 0.000075 0.000002 0.000001 -0.000004 0.055121 -1.872146 -1.095909 -0.000008 -0.001838 0.022645 0.000002 0.000001 -0.000004 0.147336 -10.931695 0.311350 -0.000003 0.000015 -0.000007 -0.000002 0.000004 0.000001 -0.366984 -18.002627 -1.683539 0.001717 -0.126626 1.554749 -0.000003 0.000003 0.000003 -0.000002 0.000001 -0.000002 -0.000002 0.000001 -0.000003 -0.000002 0.000001 -0.000001 0.000000 0.000000 -0.000001 0.000000 0.000000 -0.000001 0.000000 0.000000 -0.000001 0.000000 -0.000000 -0.000001 -0.000002 -0.000003 -0.000003 -0.000002 -0.000003 -0.000003 -0.000002 -0.000003 -0.000003 -0.000002 -0.000003 -0.000003 -0.000002 -0.000003 -0.000003 -0.000002 -0.000003 -0.000003 -0.000002 -0.000003 -0.000003 -0.000001 -0.000001 -0.000000 -0.000000 0.000000 -0.000002 
-130.019958 36.934662 12.686409 5.290837 1.784067 -44.647543 -0.000000 -0.000000 -0.000000 -128.655943 -2.283054 0.249243 33.765826 -1.090540 3.498890 37.611127 -7.866489 41.121417 0.000001 0.000000 -0.000000 -0.000000 0.000005 0.000000 -109.612385 -12.414739 -29.379430 122.918639 10.245280 0.290340 11.287089 29.838836 9.331471 0.000000 0.000001 -0.000001 -0.000001 -0.000000 0.000000 25.934329 -3.512445 -11.650447 4.488210 0.843242 -3.085103 4.437032 0.931087 -3.173856 -0.807361 0.553264 0.362637 -0.807371 0.553268 0.362641 0.000004 0.000001 0.000001 -0.807307 0.553312 0.362632 -0.807388 0.553277 0.362626 -0.000002 0.000002 -0.000002 0.000004 0.000001 0.000002 -0.122288 -19.220885 -15.638244 -51.499462 33.851637 -6.175589 0.000020 -67.064958 0.000005 -6.088717 26.491490 90.582379 -18.672552 -12.713393 12.004488 5.777666 26.666346 7.367557 0.000001 -0.000000 -0.000003 -0.115378 -6.947557 -4.731091 -0.000002 -0.000001 0.000001 -0.000000 0.000001 -0.000000 0.098949 -2.456927 0.173603 0.068520 0.894348 -8.762167 0.000000 0.000000 -0.000001 0.130690 1.054926 3.318096 0.098683 1.071871 -10.519945 -0.000000 -0.000001 -0.000000 -1.044121 17.734284 -1.991119 0.000106 0.035249 -0.343835 0.000000 0.000002 -0.000000 0.000000 0.000000 0.000002 0.000000 0.000000 0.000002 -0.000001 0.000000 0.000002 -0.000000 0.000000 0.000001 -0.000000 -0.000001 0.000001 -0.000000 0.000000 0.000001 -0.000000 -0.000000 0.000001 0.605474 17.139987 -2.151160 -40.578492 -39.839315 -15.876110 -0.000000 48.762452 0.000005 -48.772455 -4.582347 9.448620 -36.561986 16.901303 -23.361332 7.551338 -18.432408 -3.547097 0.000001 -0.000003 -0.000004 0.833845 4.174735 -1.543921 -0.000004 -0.000007 0.000002 -0.000002 0.000001 0.000001 0.056356 -1.781227 -1.019685 -0.000001 -0.001912 0.023260 -0.000001 -0.000002 -0.000003 0.150819 -10.793517 0.351499 0.000008 0.000003 -0.000008 -0.000000 0.000004 0.000004 -0.384134 -17.941097 -1.715922 0.001955 -0.134946 1.656629 0.000000 -0.000000 -0.000002 -0.000000 0.000002 -0.000001 -0.000000 0.000002 -0.000002 -0.000000 0.000002 0.000000 0.000000 0.000000 0.000002 0.000000 0.000000 0.000002 0.000000 0.000000 0.000002 0.000000 0.000000 0.000002 0.000001 0.000000 0.000002 0.000001 0.000000 0.000002 0.000001 0.000000 0.000002 0.000001 0.000000 0.000002 0.000001 0.000000 0.000002 0.000001 0.000000 0.000002 0.000001 0.000000 0.000002 0.000001 0.000000 0.000002 -0.000000 -0.000000 -0.000000 
-129.673065 38.198608 11.373291 6.442491 1.664493 -45.695342 -0.000000 -0.000000 -0.000001 -131.238957 -1.764542 -0.682751 40.567670 0.793984 2.228895 33.380142 -7.588998 44.881190 -0.000003 0.000003 0.000000 -0.000000 0.000001 -0.000000 -107.949029 -14.887965 -28.149959 120.012626 9.742216 0.222321 8.860830 29.793203 10.604767 -0.000000 0.000001 -0.000001 -0.000000 -0.000001 -0.000002 25.495510 -4.568044 -11.632328 4.429975 0.562698 -3.087451 4.399094 0.647814 -3.172076 -0.788887 0.595855 0.375753 -0.788892 0.595839 0.375747 -0.000000 0.000002 -0.000001 -0.788951 0.595830 0.375745 -0.788796 0.595924 0.375726 0.000002 0.000000 -0.000000 -0.000000 0.000002 -0.000000 0.465881 -18.467182 -14.809602 -53.117340 32.371033 -6.476287 0.000012 -65.498229 0.000006 -5.129247 26.194762 91.077219 -18.671413 -12.712489 12.006317 5.775775 26.665625 7.371033 0.000000 0.000001 -0.000006 -0.115925 -6.946744 -4.733158 -0.000001 -0.000000 -0.000002 0.000000 -0.000001 0.000000 0.098997 -2.456611 0.174215 0.068642 0.895133 -8.769936 -0.000000 -0.000002 0.000001 0.130658 1.055656 3.318953 0.098860 1.072812 -10.529234 0.000000 -0.000002 0.000001 -1.044494 17.734530 -1.990181 0.000105 0.035176 -0.343286 0.000000 0.000003 -0.000000 0.000001 -0.000001 -0.000000 0.000001 -0.000001 -0.000000 0.000001 -0.000000 0.000000 -0.000003 -0.000003 -0.000001 -0.000003 -0.000003 -0.000001 -0.000003 -0.000003 -0.000001 -0.000003 -0.000003 -0.000001 0.420655 16.309582 -2.316469 -40.918560 -42.271149 -17.103697 0.000004 49.709789 -0.000001 -47.434762 -5.281581 7.361203 -36.582162 16.789727 -23.436790 7.574900 -18.625478 -3.560983 0.000001 0.000002 -0.000002 0.842840 4.244605 -1.419234 0.000005 0.000013 -0.000006 0.000005 -0.000002 -0.000000 0.057370 -1.688867 -0.942279 -0.000002 -0.001956 0.023975 0.000002 0.000000 -0.000001 0.154179 -10.653129 0.392184 0.000003 -0.000013 0.000011 0.000001 0.000001 -0.000001 -0.401477 -17.878584 -1.748787 0.002205 -0.143364 1.760088 0.000000 -0.000002 -0.000001 0.000002 -0.000003 -0.000001 0.000000 -0.000003 0.000000 0.000002 -0.000003 -0.000001 -0.000000 0.000001 -0.000000 -0.000000 0.000001 0.000002 -0.000000 0.000001 -0.000000 -0.000000 0.000001 0.000002 0.000002 -0.000001 -0.000002 0.000002 -0.000001 -0.000002 0.000002 -0.000001 -0.000002 0.000002 -0.000001 -0.000002 0.000002 -0.000001 -0.000002 0.000002 -0.000001 -0.000002 0.000002 -0.000001 -0.000002 -0.000001 -0.000002 -0.000001 -0.000000 -0.000000 -0.000001 
